<svg xmlns="http://www.w3.org/2000/svg" width="78.312" height="75.786" viewBox="0 0 78.312 75.786">
  <g id="asesoramiento_1_" data-name="asesoramiento (1)" transform="translate(-0.99 -1.99)">
    <path id="Trazado_77129" data-name="Trazado 77129" d="M9.577,33.155A7.577,7.577,0,1,0,2,25.577,7.583,7.583,0,0,0,9.577,33.155Zm0-12.629a5.052,5.052,0,1,1-5.052,5.052A5.05,5.05,0,0,1,9.577,20.526Z" transform="translate(0.266 4.209)" fill="#79699e"/>
    <path id="Trazado_77130" data-name="Trazado 77130" d="M57.577,33.155A7.577,7.577,0,1,0,50,25.577,7.583,7.583,0,0,0,57.577,33.155Zm0-12.629a5.052,5.052,0,1,1-5.052,5.052A5.05,5.05,0,0,1,57.577,20.526Z" transform="translate(12.884 4.209)" fill="#79699e"/>
    <path id="Trazado_77131" data-name="Trazado 77131" d="M70.462,31a8.85,8.85,0,0,0-8.84,8.84v2.526h-8.84a3.763,3.763,0,0,0-3.561,5.052H31.072a3.763,3.763,0,0,0-3.561-5.052H18.67V39.84a8.84,8.84,0,1,0-17.68,0V51.206A8.87,8.87,0,0,0,7.3,59.68v7.944H2.266V70.15H78.039V67.624H72.987V59.68A8.847,8.847,0,0,0,79.3,51.206V39.84A8.85,8.85,0,0,0,70.462,31ZM52.781,49.943h.745l-.682.682a6.285,6.285,0,0,1-4.471,1.844H31.918a6.306,6.306,0,0,1-4.471-1.844l-.682-.682h26ZM9.843,67.624V60.047h6.314a1.267,1.267,0,0,1,1.263,1.263v5.052a3.794,3.794,0,0,0,.227,1.263Zm12.629-1.263a1.263,1.263,0,1,1-2.526,0V61.309a3.8,3.8,0,0,0-3.789-3.789H9.843a6.317,6.317,0,0,1-6.314-6.314V39.84a6.314,6.314,0,0,1,12.629,0v3.789a1.267,1.267,0,0,0,1.263,1.263h10.1a1.263,1.263,0,1,1,0,2.526H13.632v-8.84H11.106v10.1a1.267,1.267,0,0,0,1.263,1.263h.96l5.645,2.829a6.265,6.265,0,0,1,3.486,5.645v7.944Zm11.492,1.263H24.758a3.794,3.794,0,0,0,.227-1.263V58.417A8.777,8.777,0,0,0,20.1,50.512l-1.124-.568H23.2l2.463,2.463a8.789,8.789,0,0,0,6.251,2.589h6.959v7.7a6.327,6.327,0,0,0-4.925,4.925Zm2.627,0a3.774,3.774,0,0,1,7.123,0H36.6Zm9.737,0A6.327,6.327,0,0,0,41.4,62.7v-7.7h6.959a8.789,8.789,0,0,0,6.251-2.589l2.463-2.463h4.231l-1.124.568a8.777,8.777,0,0,0-4.887,7.906v7.944a3.794,3.794,0,0,0,.227,1.263H46.315Zm24.121,0h-7.8a3.794,3.794,0,0,0,.227-1.263V61.309a1.267,1.267,0,0,1,1.263-1.263h6.314Zm6.314-16.418a6.317,6.317,0,0,1-6.314,6.314H64.135a3.8,3.8,0,0,0-3.789,3.789v5.052a1.263,1.263,0,1,1-2.526,0V58.417a6.274,6.274,0,0,1,3.486-5.645l5.645-2.829h.96a1.267,1.267,0,0,0,1.263-1.263v-10.1H66.648v8.84H52.756a1.263,1.263,0,0,1,0-2.526h10.1a1.267,1.267,0,0,0,1.263-1.263V39.84a6.314,6.314,0,1,1,12.629,0V51.206Z" transform="translate(0 7.626)" fill="#79699e"/>
    <path id="Trazado_77132" data-name="Trazado 77132" d="M37.892,29.786A13.776,13.776,0,0,0,42.16,29.1l10.52,3.157a1.221,1.221,0,0,0,.366.051,1.263,1.263,0,0,0,.985-.48,1.283,1.283,0,0,0,.114-1.414l-4.281-7.489a13.892,13.892,0,1,0-11.972,6.845Zm0-25.258A11.383,11.383,0,0,1,49.258,15.894a11.259,11.259,0,0,1-1.92,6.314,1.256,1.256,0,0,0-.051,1.326l3.081,5.393-7.88-2.362a1.168,1.168,0,0,0-.366-.051,1.283,1.283,0,0,0-.429.076A11.362,11.362,0,1,1,37.879,4.528Z" transform="translate(6.049)" fill="#79699e"/>
    <path id="Trazado_77133" data-name="Trazado 77133" d="M30,12h2.526v2.526H30Z" transform="translate(7.626 2.632)" fill="#79699e"/>
    <path id="Trazado_77134" data-name="Trazado 77134" d="M34,12h2.526v2.526H34Z" transform="translate(8.678 2.632)" fill="#79699e"/>
    <path id="Trazado_77135" data-name="Trazado 77135" d="M38,12h2.526v2.526H38Z" transform="translate(9.73 2.632)" fill="#79699e"/>
    <path id="Trazado_77136" data-name="Trazado 77136" d="M16,31h2.526v2.526H16Z" transform="translate(3.946 7.626)" fill="#79699e"/>
    <path id="Trazado_77137" data-name="Trazado 77137" d="M20,31h2.526v2.526H20Z" transform="translate(4.998 7.626)" fill="#79699e"/>
    <path id="Trazado_77138" data-name="Trazado 77138" d="M24,31h2.526v2.526H24Z" transform="translate(6.049 7.626)" fill="#79699e"/>
  </g>
</svg>
