<svg xmlns="http://www.w3.org/2000/svg" width="85.729" height="70.023" viewBox="0 0 85.729 70.023">
  <g id="Grupo_16694" data-name="Grupo 16694" transform="translate(-477 -2686)">
    <g id="latido-del-corazon_1_" data-name="latido-del-corazon (1)" transform="translate(477 2686)">
      <g id="Grupo_16695" data-name="Grupo 16695" transform="translate(56.102 49.168)">
        <g id="Grupo_16694-2" data-name="Grupo 16694">
          <path id="Trazado_77121" data-name="Trazado 77121" d="M338.75,341.759a1.754,1.754,0,0,0-2.481.025l-.05.051a1.754,1.754,0,0,0,2.506,2.455l.05-.051A1.754,1.754,0,0,0,338.75,341.759Z" transform="translate(-335.718 -341.258)" fill="#79699e"/>
        </g>
      </g>
      <g id="Grupo_16699" data-name="Grupo 16699" transform="translate(0 0)">
        <g id="Grupo_16698" data-name="Grupo 16698">
          <path id="Trazado_77123" data-name="Trazado 77123" d="M76.469,67.105A23.077,23.077,0,0,0,53.773,46.9a22.379,22.379,0,0,0-15.429,6.114A22.38,22.38,0,0,0,22.914,46.9C10.279,46.9,0,57.423,0,70.359a20.534,20.534,0,0,0,2.229,8.583H1.674a1.674,1.674,0,1,0,0,3.349H4.012q4.691,7.942,14.816,18.02a215.825,215.825,0,0,0,18.5,16.267,1.674,1.674,0,0,0,2.034,0c.071-.054,7.158-5.489,15.012-12.894a1.674,1.674,0,1,0-2.3-2.437c-5.99,5.648-11.52,10.125-13.732,11.875a214.64,214.64,0,0,1-17.178-15.21A99.6,99.6,0,0,1,7.947,82.291h14.99a1.674,1.674,0,0,0,1.609-1.213l2.926-10.2,8.1,25.956a1.674,1.674,0,0,0,3.2,0l4.487-14.379h7.475a1.674,1.674,0,1,0,0-3.349H42.025a1.674,1.674,0,0,0-1.6,1.176L37.171,90.717,29,64.545a1.674,1.674,0,0,0-3.208.037l-4.12,14.359H5.965a19.041,19.041,0,0,1-2.616-8.583c0-11.089,8.777-20.111,19.566-20.111a19.144,19.144,0,0,1,14.2,6.276,1.675,1.675,0,0,0,2.461,0,19.144,19.144,0,0,1,14.2-6.276A19.687,19.687,0,0,1,72.916,66.176a14.739,14.739,0,1,0,3.553.93ZM70.994,92.171A11.386,11.386,0,1,1,82.38,80.785,11.4,11.4,0,0,1,70.994,92.171Z" transform="translate(0 -46.899)" fill="#79699e"/>
        </g>
      </g>
    </g>
    <path id="Trazado_77128" data-name="Trazado 77128" d="M268.619,41.361v1.608a4.116,4.116,0,0,0,1.372,8,1.372,1.372,0,0,1,0,2.744,2.481,2.481,0,0,1-1.781-1.038,1.372,1.372,0,0,0-2.1,1.766,5.691,5.691,0,0,0,2.51,1.787v1.6a1.372,1.372,0,1,0,2.744,0V56.217a4.116,4.116,0,0,0-1.372-8,1.372,1.372,0,0,1,0-2.744,2.2,2.2,0,0,1,1.484.717,1.372,1.372,0,1,0,1.908-1.972,5.3,5.3,0,0,0-2.021-1.263v-1.6a1.372,1.372,0,1,0-2.744,0Zm0,0" transform="translate(277.522 2670.209)" fill="#79699e"/>
  </g>
</svg>
