<svg xmlns="http://www.w3.org/2000/svg" width="70.144" height="69.942" viewBox="0 0 70.144 69.942">
  <g id="libro-magico" transform="translate(0 -0.737)">
    <g id="Grupo_16701" data-name="Grupo 16701" transform="translate(38.974 0.737)">
      <g id="Grupo_16700" data-name="Grupo 16700" transform="translate(0 0)">
        <path id="Trazado_77139" data-name="Trazado 77139" d="M285.522.737a1.042,1.042,0,0,0-1.042,1.042V4.539a1.042,1.042,0,0,0,2.083,0V1.779A1.042,1.042,0,0,0,285.522.737Z" transform="translate(-284.48 -0.737)" fill="#79699e"/>
      </g>
    </g>
    <g id="Grupo_16703" data-name="Grupo 16703" transform="translate(38.974 8.169)">
      <g id="Grupo_16702" data-name="Grupo 16702">
        <path id="Trazado_77140" data-name="Trazado 77140" d="M285.522,54.988a1.042,1.042,0,0,0-1.042,1.042v2.76a1.042,1.042,0,0,0,2.083,0V56.03A1.042,1.042,0,0,0,285.522,54.988Z" transform="translate(-284.48 -54.988)" fill="#79699e"/>
      </g>
    </g>
    <g id="Grupo_16705" data-name="Grupo 16705" transform="translate(41.309 5.834)">
      <g id="Grupo_16704" data-name="Grupo 16704">
        <path id="Trazado_77141" data-name="Trazado 77141" d="M305.332,37.938h-2.761a1.042,1.042,0,1,0,0,2.083h2.761a1.042,1.042,0,1,0,0-2.083Z" transform="translate(-301.53 -37.938)" fill="#79699e"/>
      </g>
    </g>
    <g id="Grupo_16707" data-name="Grupo 16707" transform="translate(33.877 5.834)">
      <g id="Grupo_16706" data-name="Grupo 16706">
        <path id="Trazado_77142" data-name="Trazado 77142" d="M251.082,37.938h-2.76a1.042,1.042,0,0,0,0,2.083h2.761a1.042,1.042,0,1,0,0-2.083Z" transform="translate(-247.28 -37.938)" fill="#79699e"/>
      </g>
    </g>
    <g id="Grupo_16709" data-name="Grupo 16709" transform="translate(0 26.813)">
      <g id="Grupo_16708" data-name="Grupo 16708">
        <path id="Trazado_77143" data-name="Trazado 77143" d="M7.709,232.857h-3.6a2.03,2.03,0,0,1-2.028-2.028V192.117a1.042,1.042,0,0,0-2.083,0v38.712a4.116,4.116,0,0,0,4.111,4.111h3.6a1.042,1.042,0,1,0,0-2.083Z" transform="translate(0 -191.075)" fill="#79699e"/>
      </g>
    </g>
    <g id="Grupo_16711" data-name="Grupo 16711" transform="translate(3.664 17.62)">
      <g id="Grupo_16710" data-name="Grupo 16710">
        <path id="Trazado_77144" data-name="Trazado 77144" d="M92.184,133.162a1.042,1.042,0,0,0-1.042,1.042v38.712a2.031,2.031,0,0,1-2.029,2.028H59.2v-1.667H85.418a4.147,4.147,0,0,0,4.142-4.142V128.11a4.147,4.147,0,0,0-4.142-4.142H79a1.042,1.042,0,0,0,0,2.083h6.418a2.061,2.061,0,0,1,2.058,2.058v36.873a2.06,2.06,0,0,1-2.058,2.057H64.728a7.58,7.58,0,0,0-5.532,2.372V131.584a5.539,5.539,0,0,1,5.532-5.532h2.745a1.042,1.042,0,0,0,0-2.083H64.728a7.618,7.618,0,0,0-6.574,3.778,7.618,7.618,0,0,0-6.574-3.778H47.164a1.042,1.042,0,1,0,0,2.083H51.58a5.539,5.539,0,0,1,5.532,5.532v37.829a7.581,7.581,0,0,0-5.532-2.372H30.888a2.06,2.06,0,0,1-2.058-2.057V128.11a2.061,2.061,0,0,1,2.058-2.058h7.386a1.042,1.042,0,0,0,0-2.083H30.888a4.147,4.147,0,0,0-4.142,4.142v41.025a4.147,4.147,0,0,0,4.142,4.142H57.112v1.667H34.263a1.042,1.042,0,1,0,0,2.083h54.85a4.117,4.117,0,0,0,4.113-4.111V134.2A1.042,1.042,0,0,0,92.184,133.162ZM64.728,169.124h20.69a4.116,4.116,0,0,0,2.058-.55v.561a2.061,2.061,0,0,1-2.058,2.058H60.408A5.5,5.5,0,0,1,64.728,169.124Zm-33.84,2.07a2.061,2.061,0,0,1-2.058-2.058v-.561a4.116,4.116,0,0,0,2.058.55H51.58a5.5,5.5,0,0,1,4.32,2.07H30.888Z" transform="translate(-26.746 -123.968)" fill="#79699e"/>
      </g>
    </g>
    <g id="Grupo_16713" data-name="Grupo 16713" transform="translate(10.085 27.174)">
      <g id="Grupo_16712" data-name="Grupo 16712">
        <path id="Trazado_77145" data-name="Trazado 77145" d="M91.513,193.706H74.659a1.042,1.042,0,1,0,0,2.083H91.513a1.042,1.042,0,1,0,0-2.083Z" transform="translate(-73.617 -193.706)" fill="#79699e"/>
      </g>
    </g>
    <g id="Grupo_16715" data-name="Grupo 16715" transform="translate(10.085 32.272)">
      <g id="Grupo_16714" data-name="Grupo 16714">
        <path id="Trazado_77146" data-name="Trazado 77146" d="M91.513,230.923H74.659a1.042,1.042,0,0,0,0,2.083H91.513a1.042,1.042,0,1,0,0-2.083Z" transform="translate(-73.617 -230.923)" fill="#79699e"/>
      </g>
    </g>
    <g id="Grupo_16717" data-name="Grupo 16717" transform="translate(23.196 42.47)">
      <g id="Grupo_16716" data-name="Grupo 16716">
        <path id="Trazado_77147" data-name="Trazado 77147" d="M174.1,305.357H170.36a1.042,1.042,0,0,0,0,2.083H174.1a1.042,1.042,0,0,0,0-2.083Z" transform="translate(-169.318 -305.357)" fill="#79699e"/>
      </g>
    </g>
    <g id="Grupo_16719" data-name="Grupo 16719" transform="translate(10.085 42.47)">
      <g id="Grupo_16718" data-name="Grupo 16718">
        <path id="Trazado_77148" data-name="Trazado 77148" d="M84.3,305.357H74.659a1.042,1.042,0,0,0,0,2.083H84.3a1.042,1.042,0,0,0,0-2.083Z" transform="translate(-73.617 -305.357)" fill="#79699e"/>
      </g>
    </g>
    <g id="Grupo_16721" data-name="Grupo 16721" transform="translate(10.085 52.667)">
      <g id="Grupo_16720" data-name="Grupo 16720">
        <path id="Trazado_77149" data-name="Trazado 77149" d="M91.513,379.79H74.659a1.042,1.042,0,0,0,0,2.083H91.513a1.042,1.042,0,0,0,0-2.083Z" transform="translate(-73.617 -379.79)" fill="#79699e"/>
      </g>
    </g>
    <g id="Grupo_16723" data-name="Grupo 16723" transform="translate(10.085 37.371)">
      <g id="Grupo_16722" data-name="Grupo 16722">
        <path id="Trazado_77150" data-name="Trazado 77150" d="M91.513,268.14H74.659a1.042,1.042,0,0,0,0,2.083H91.513a1.042,1.042,0,0,0,0-2.083Z" transform="translate(-73.617 -268.14)" fill="#79699e"/>
      </g>
    </g>
    <g id="Grupo_16725" data-name="Grupo 16725" transform="translate(10.085 47.569)">
      <g id="Grupo_16724" data-name="Grupo 16724">
        <path id="Trazado_77151" data-name="Trazado 77151" d="M91.513,342.574H74.659a1.042,1.042,0,0,0,0,2.083H91.513a1.042,1.042,0,0,0,0-2.083Z" transform="translate(-73.617 -342.574)" fill="#79699e"/>
      </g>
    </g>
    <g id="Grupo_16727" data-name="Grupo 16727" transform="translate(41.922 32.272)">
      <g id="Grupo_16726" data-name="Grupo 16726">
        <path id="Trazado_77152" data-name="Trazado 77152" d="M309.511,230.923h-2.468a1.042,1.042,0,0,0,0,2.083h2.468a1.042,1.042,0,0,0,0-2.083Z" transform="translate(-306.001 -230.923)" fill="#79699e"/>
      </g>
    </g>
    <g id="Grupo_16729" data-name="Grupo 16729" transform="translate(54.044 32.272)">
      <g id="Grupo_16728" data-name="Grupo 16728">
        <path id="Trazado_77153" data-name="Trazado 77153" d="M400.255,230.923h-4.733a1.042,1.042,0,0,0,0,2.083h4.733a1.042,1.042,0,0,0,0-2.083Z" transform="translate(-394.48 -230.923)" fill="#79699e"/>
      </g>
    </g>
    <g id="Grupo_16731" data-name="Grupo 16731" transform="translate(41.922 42.47)">
      <g id="Grupo_16730" data-name="Grupo 16730">
        <path id="Trazado_77154" data-name="Trazado 77154" d="M323.9,305.357H307.043a1.042,1.042,0,0,0,0,2.083H323.9a1.042,1.042,0,0,0,0-2.083Z" transform="translate(-306.001 -305.357)" fill="#79699e"/>
      </g>
    </g>
    <g id="Grupo_16733" data-name="Grupo 16733" transform="translate(41.922 52.667)">
      <g id="Grupo_16732" data-name="Grupo 16732">
        <path id="Trazado_77155" data-name="Trazado 77155" d="M323.9,379.79H307.043a1.042,1.042,0,0,0,0,2.083H323.9a1.042,1.042,0,0,0,0-2.083Z" transform="translate(-306.001 -379.79)" fill="#79699e"/>
      </g>
    </g>
    <g id="Grupo_16735" data-name="Grupo 16735" transform="translate(41.922 37.371)">
      <g id="Grupo_16734" data-name="Grupo 16734">
        <path id="Trazado_77156" data-name="Trazado 77156" d="M323.9,268.14H307.043a1.042,1.042,0,0,0,0,2.083H323.9a1.042,1.042,0,0,0,0-2.083Z" transform="translate(-306.001 -268.14)" fill="#79699e"/>
      </g>
    </g>
    <g id="Grupo_16737" data-name="Grupo 16737" transform="translate(41.922 47.569)">
      <g id="Grupo_16736" data-name="Grupo 16736">
        <path id="Trazado_77157" data-name="Trazado 77157" d="M309.492,342.574h-2.449a1.042,1.042,0,0,0,0,2.083h2.449a1.042,1.042,0,0,0,0-2.083Z" transform="translate(-306.001 -342.574)" fill="#79699e"/>
      </g>
    </g>
    <g id="Grupo_16739" data-name="Grupo 16739" transform="translate(47.844 47.569)">
      <g id="Grupo_16738" data-name="Grupo 16738">
        <path id="Trazado_77158" data-name="Trazado 77158" d="M361.2,342.574H350.267a1.042,1.042,0,0,0,0,2.083H361.2a1.042,1.042,0,0,0,0-2.083Z" transform="translate(-349.225 -342.574)" fill="#79699e"/>
      </g>
    </g>
    <g id="Grupo_16741" data-name="Grupo 16741" transform="translate(9.083 0.968)">
      <g id="Grupo_16740" data-name="Grupo 16740">
        <path id="Trazado_77159" data-name="Trazado 77159" d="M85.463,10.791l-2.377-.482a4.9,4.9,0,0,1-3.834-3.834L78.771,4.1a2.092,2.092,0,0,0-4.1,0l-.482,2.377a4.9,4.9,0,0,1-3.834,3.834l-2.377.482a2.092,2.092,0,0,0,0,4.1l2.377.482a4.9,4.9,0,0,1,3.834,3.834l.482,2.377a2.073,2.073,0,0,0,2.05,1.676h0a2.073,2.073,0,0,0,2.05-1.676l.482-2.377a4.9,4.9,0,0,1,3.834-3.834l2.377-.482a2.092,2.092,0,0,0,0-4.1Zm-.408,2.057h-.007l-2.377.482a6.977,6.977,0,0,0-5.462,5.462l-.482,2.377,0,.007h-.014V21.17l-.482-2.377a6.978,6.978,0,0,0-5.462-5.462l-2.377-.482h-.007s0-.009,0-.014h.007l2.377-.482A6.977,6.977,0,0,0,76.23,6.889l.482-2.377,0-.007h.014l0,.007.482,2.377a6.978,6.978,0,0,0,5.462,5.462l2.377.482h.007A.116.116,0,0,1,85.056,12.848Z" transform="translate(-66.301 -2.422)" fill="#79699e"/>
      </g>
    </g>
    <g id="Grupo_16743" data-name="Grupo 16743" transform="translate(38.069 12.695)">
      <g id="Grupo_16742" data-name="Grupo 16742">
        <path id="Trazado_77160" data-name="Trazado 77160" d="M300.287,97.907l-2.808-.569a5.974,5.974,0,0,1-4.676-4.676l-.569-2.808a2.282,2.282,0,0,0-4.474,0l-.569,2.808a5.974,5.974,0,0,1-4.676,4.676l-2.808.569a2.282,2.282,0,0,0,0,4.474l2.808.569a5.974,5.974,0,0,1,4.676,4.676l.569,2.808a2.282,2.282,0,0,0,4.474,0l.569-2.808a5.974,5.974,0,0,1,4.676-4.676l2.808-.569a2.282,2.282,0,0,0,0-4.474Zm-.414,2.432-2.808.569a8.053,8.053,0,0,0-6.3,6.3l-.569,2.808a.2.2,0,0,1-.39,0l-.569-2.808a8.053,8.053,0,0,0-6.3-6.3l-2.808-.569a.2.2,0,0,1,0-.39l2.808-.569a8.053,8.053,0,0,0,6.3-6.3l.569-2.808a.2.2,0,0,1,.39,0l.569,2.808a8.053,8.053,0,0,0,6.3,6.3l2.808.569a.2.2,0,0,1,0,.39Z" transform="translate(-277.877 -88.025)" fill="#79699e"/>
      </g>
    </g>
  </g>
</svg>
