<svg xmlns="http://www.w3.org/2000/svg" width="75.776" height="65.443" viewBox="0 0 75.776 65.443">
  <g id="maletin_7_" data-name="maletin (7)" transform="translate(0 -34.909)">
    <g id="Grupo_16745" data-name="Grupo 16745" transform="translate(1.722 71.075)">
      <g id="Grupo_16744" data-name="Grupo 16744" transform="translate(0 0)">
        <path id="Trazado_77161" data-name="Trazado 77161" d="M82.246,279.273A1.627,1.627,0,0,0,80.524,281v22.388a1.627,1.627,0,0,1-1.722,1.722h-62a1.627,1.627,0,0,1-1.722-1.722V281a1.627,1.627,0,0,0-1.722-1.722A1.627,1.627,0,0,0,11.637,281v22.388A5.074,5.074,0,0,0,16.8,308.55h62a5.074,5.074,0,0,0,5.167-5.167V281A1.627,1.627,0,0,0,82.246,279.273Z" transform="translate(-11.637 -279.273)" fill="#79699e"/>
      </g>
    </g>
    <g id="Grupo_16747" data-name="Grupo 16747" transform="translate(0 46.964)">
      <g id="Grupo_16746" data-name="Grupo 16746" transform="translate(0 0)">
        <path id="Trazado_77162" data-name="Trazado 77162" d="M70.609,116.364H5.167A5.074,5.074,0,0,0,0,121.53v11.022a5.17,5.17,0,0,0,3.961,4.994L31,143.574v5.511a1.627,1.627,0,0,0,1.722,1.722H43.054a1.627,1.627,0,0,0,1.722-1.722v-5.511l27.038-6.028a5.17,5.17,0,0,0,3.961-4.994V121.53A5.074,5.074,0,0,0,70.609,116.364Zm-29.277,31H34.444v-6.889h6.889Zm31-14.811a1.677,1.677,0,0,1-1.378,1.722L44.776,140.13v-1.378a1.627,1.627,0,0,0-1.722-1.722H32.721A1.627,1.627,0,0,0,31,138.752v1.378L4.822,134.275a1.677,1.677,0,0,1-1.378-1.722V121.531a1.627,1.627,0,0,1,1.722-1.722H70.609a1.627,1.627,0,0,1,1.722,1.722Z" transform="translate(0 -116.364)" fill="#79699e"/>
      </g>
    </g>
    <g id="Grupo_16749" data-name="Grupo 16749" transform="translate(24.11 34.909)">
      <g id="Grupo_16748" data-name="Grupo 16748" transform="translate(0 0)">
        <path id="Trazado_77163" data-name="Trazado 77163" d="M185.3,34.909H168.076a5.074,5.074,0,0,0-5.167,5.167V41.8a1.722,1.722,0,1,0,3.444,0V40.076a1.627,1.627,0,0,1,1.722-1.722H185.3a1.627,1.627,0,0,1,1.722,1.722V41.8a1.722,1.722,0,1,0,3.444,0V40.076A5.074,5.074,0,0,0,185.3,34.909Z" transform="translate(-162.909 -34.909)" fill="#79699e"/>
      </g>
    </g>
  </g>
</svg>
