<svg xmlns="http://www.w3.org/2000/svg" width="83.358" height="83.384" viewBox="0 0 83.358 83.384">
  <g id="mano" transform="translate(-0.501)">
    <path id="Trazado_77124" data-name="Trazado 77124" d="M221.5,332.974a1.629,1.629,0,1,0-2.3,0A1.631,1.631,0,0,0,221.5,332.974Zm0,0" transform="translate(-182.684 -276.418)" fill="#79699e"/>
    <path id="Trazado_77125" data-name="Trazado 77125" d="M188.449,17.91A17.91,17.91,0,1,0,206.359,0,17.93,17.93,0,0,0,188.449,17.91Zm32.563,0A14.654,14.654,0,1,1,206.359,3.257,14.67,14.67,0,0,1,221.012,17.91Zm0,0" transform="translate(-157.339)" fill="#79699e"/>
    <path id="Trazado_77126" data-name="Trazado 77126" d="M19.255,260.644a1.628,1.628,0,0,0,2.3.013l7.894-7.777a4.92,4.92,0,0,0,1.159-5.052l1.7-1.638a4.855,4.855,0,0,1,3.39-1.37H57.338a14.577,14.577,0,0,0,10.221-4.152c.113-.11-.859,1.036,14.766-17.64a6.513,6.513,0,0,0-9.91-8.453l-9.607,9.875a6.543,6.543,0,0,0-5.062-2.424H39.589a21.005,21.005,0,0,0-8.153-1.628c-7.84,0-14.686,3.621-18.36,10.41a4.863,4.863,0,0,0-4.355,1.349L.976,239.927a1.628,1.628,0,0,0,0,2.3Zm12.181-36.989a17.773,17.773,0,0,1,7.168,1.492,1.625,1.625,0,0,0,.653.137H57.745a3.256,3.256,0,1,1,0,6.512H44.461a1.628,1.628,0,0,0,0,3.256H57.745a6.5,6.5,0,0,0,6.455-7.364c9.294-9.553,10.6-10.9,10.66-10.963a3.257,3.257,0,1,1,4.972,4.208l-14.6,17.458a11.337,11.337,0,0,1-7.892,3.174H35.693a8.1,8.1,0,0,0-5.652,2.283l-1.384,1.335L15.9,232.428C18.884,226.836,24.477,223.655,31.435,223.655Zm-20.41,10.8a1.624,1.624,0,0,1,2.016-.229c.282.172-.527-.565,14.1,14.044a1.631,1.631,0,0,1,.009,2.295l-6.729,6.63-16-16.12Zm0,0" transform="translate(0 -177.741)" fill="#79699e"/>
    <path id="Trazado_77127" data-name="Trazado 77127" d="M269.147,41.617v1.908a4.884,4.884,0,0,0,1.628,9.489,1.628,1.628,0,0,1,0,3.256,2.945,2.945,0,0,1-2.114-1.232,1.628,1.628,0,0,0-2.492,2.1,6.753,6.753,0,0,0,2.979,2.12v1.9a1.628,1.628,0,1,0,3.256,0V59.246a4.884,4.884,0,0,0-1.628-9.489,1.628,1.628,0,0,1,0-3.257,2.614,2.614,0,0,1,1.761.851,1.628,1.628,0,1,0,2.265-2.34,6.29,6.29,0,0,0-2.4-1.5v-1.9a1.628,1.628,0,1,0-3.256,0Zm0,0" transform="translate(-222.081 -33.476)" fill="#79699e"/>
  </g>
</svg>
